PathFileType	4	(X/Y/Z)	C:/Users/opensim2020/Desktop/walking_exp_matlab/subject06_walking13_straight_01.trc																																																																																																																																																				
DataRate	CameraRate	NumFrames	NumMarkers	Units	OrigDataRate	OrigDataStartFrame	OrigNumFrames																																																																																																																																																
100	100	5	50	mm	100	869	163																																																																																																																																																
Frame#	Time	LFHD			RFHD			LBHD			RBHD			C7			T10			CLAV			STRN			RBAK			LSHO			LUPA			LELB			LFRM			LWRA			LWRB			LFIN			RSHO			RUPA			RELB			RFRM			RWRA			RWRB			RFIN			LASI			RASI			LPSI			RPSI			LTHI			LKNE			LTIB			LANK			LHEE			LTOE			RTHI			RKNE			RTIB			RANK			RHEE			RTOE			*39			*40			*41			*42			*43			*44			*45			*46			*47			*48			*49		
		X1	Y1	Z1	X2	Y2	Z2	X3	Y3	Z3	X4	Y4	Z4	X5	Y5	Z5	X6	Y6	Z6	X7	Y7	Z7	X8	Y8	Z8	X9	Y9	Z9	X10	Y10	Z10	X11	Y11	Z11	X12	Y12	Z12	X13	Y13	Z13	X14	Y14	Z14	X15	Y15	Z15	X16	Y16	Z16	X17	Y17	Z17	X18	Y18	Z18	X19	Y19	Z19	X20	Y20	Z20	X21	Y21	Z21	X22	Y22	Z22	X23	Y23	Z23	X24	Y24	Z24	X25	Y25	Z25	X26	Y26	Z26	X27	Y27	Z27	X28	Y28	Z28	X29	Y29	Z29	X30	Y30	Z30	X31	Y31	Z31	X32	Y32	Z32	X33	Y33	Z33	X34	Y34	Z34	X35	Y35	Z35	X36	Y36	Z36	X37	Y37	Z37	X38	Y38	Z38	X39	Y39	Z39	X40	Y40	Z40	X41	Y41	Z41	X42	Y42	Z42	X43	Y43	Z43	X44	Y44	Z44	X45	Y45	Z45	X46	Y46	Z46	X47	Y47	Z47	X48	Y48	Z48	X49	Y49	Z49	X50	Y50	Z50
																																																																																																																																																							
21	0.2	-667.24585	1635.51526	-1065.78552	-677.6225	1625.92749	-935.30664	-803.15363	1586.06555	-1076.17395	-810.73364	1581.95337	-946.71814	-813.9455	1429.85986	-1011.57098	-868.03699	1103.0929	-994.61774	-707.25928	1346.52515	-1009.10883	-676.89209	1170.94604	-1006.53101	-893.54681	1267.95874	-919.36914	-763.24811	1376.44812	-1171.80786	-827.80304	1186.05115	-1234.90527	-873.86456	1083.00269	-1241.78198	-905.25916	936.02393	-1266.48486	-880.80188	806.08344	-1232.28894	-944.57721	823.4538	-1261.88318	-934.85724	732.78473	-1265.47253	-746.52692	1388.37866	-849.22443	-766.02087	1196.90686	-744.98834	-736.42676	1082.33862	-723.84515	-661.18152	993.20996	-715.02417	-537.87891	921.34528	-767.60205	-574.19763	889.01086	-721.53253	-499.35852	854.44818	-729.54901	-683.04022	942.86829	-1091.52576	-705.31958	943.58612	-874.68811	-844.4892	964.54547	-1083.23315	-853.29669	970.52594	-914.66571	-680.1297	633.45306	-1169.33044	-621.12531	485.34061	-1137.03003	-565.44971	236.22969	-1133.00073	-499.57993	74.32435	-1094.69531	-529.9718	49.84488	-1044.85242	-350.94507	87.35266	-1091.27063	-806.8056	612.19873	-840.7981	-829.39532	487.22479	-864.70142	-968.35229	252.35135	-883.08044	-1043.18384	84.18931	-941.57324	-1086.73132	70.5339	-988.9317	-900.76208	29.74885	-932.97443	-771.03937	1678.323	-1015.53809	NaN	NaN	NaN	NaN	NaN	NaN	NaN	NaN	NaN	NaN	NaN	NaN	NaN	NaN	NaN	NaN	NaN	NaN	NaN	NaN	NaN	NaN	NaN	NaN	NaN	NaN	NaN	NaN	NaN	NaN
22	0.21	-657.11987	1634.7113	-1066.72876	-667.34875	1625.10034	-936.04266	-792.90332	1584.98364	-1076.90967	-800.47845	1580.90686	-947.45654	-803.64301	1428.84497	-1012.32593	-857.33032	1101.97888	-995.67389	-696.84686	1345.59766	-1009.68042	-666.28223	1170.03894	-1007.03601	-883.2348	1266.8822	-920.30664	-752.75616	1375.43164	-1172.61108	-817.3324	1185.12646	-1235.6543	-863.53259	1082.04297	-1242.55994	-895.57489	935.26965	-1266.92603	-871.41937	805.32129	-1232.32678	-935.45746	822.87769	-1262.31775	-926.11078	732.11328	-1265.63342	-736.36682	1387.32361	-849.8573	-756.5611	1195.78699	-745.62683	-727.27863	1081.18115	-724.38086	-652.34399	991.75281	-715.40344	-529.18579	919.45703	-767.52173	-565.87164	887.21497	-721.49475	-490.80954	852.32556	-729.33038	-671.64838	941.97034	-1092.43542	-694.62238	942.7287	-875.39771	-833.16962	963.43207	-1084.54529	-842.59216	969.32123	-916.03284	-667.77783	632.87805	-1168.63757	-609.08862	485.20032	-1136.4314	-558.24927	233.3672	-1132.66797	-491.83527	72.28899	-1094.18408	-522.57117	47.9975	-1044.44177	-343.27475	84.15779	-1090.70325	-796.35559	611.47223	-841.00977	-818.75946	486.32648	-864.77881	-962.56653	254.07481	-882.53162	-1041.59106	87.67955	-940.35303	-1085.42822	75.09726	-987.57959	-900.68774	29.74803	-932.90582	-760.88837	1677.35291	-1016.22449	NaN	NaN	NaN	NaN	NaN	NaN	NaN	NaN	NaN	NaN	NaN	NaN	NaN	NaN	NaN	NaN	NaN	NaN	NaN	NaN	NaN	NaN	NaN	NaN	NaN	NaN	NaN	NaN	NaN	NaN
23	0.22	-647.19452	1634.08777	-1067.83691	-657.00244	1624.42139	-936.85645	-782.53882	1584.15723	-1077.67236	-790.06677	1580.14392	-948.23462	-793.16046	1428.08459	-1013.13934	-846.422	1101.11926	-996.87091	-686.23969	1344.88892	-1010.37329	-655.46228	1169.35413	-1007.68079	-872.80402	1266.0083	-921.30145	-741.97833	1374.82666	-1173.44189	-806.60852	1184.29895	-1236.38196	-853.01935	1081.40137	-1243.26746	-885.18054	934.53455	-1267.46094	-862.3891	804.44275	-1232.74915	-925.49341	822.34015	-1262.89148	-916.43097	731.51306	-1265.9668	-726.10687	1386.4292	-850.52295	-746.97937	1194.87183	-746.45264	-718.1825	1080.1532	-725.10699	-643.89899	990.255	-715.78607	-520.99255	917.15283	-767.4718	-557.96466	885.25427	-721.60474	-483.36429	849.98126	-729.09399	-659.89551	941.27856	-1093.35754	-683.53198	941.99908	-876.15833	-821.50262	962.42731	-1085.82922	-831.65363	968.35889	-917.4566	-655.60535	632.56219	-1168.25696	-597.01062	484.83405	-1136.02979	-547.40405	233.27522	-1132.59338	-485.92935	69.8322	-1093.69592	-517.21594	45.83336	-1044.01318	-337.48642	79.83444	-1089.90051	-785.45709	610.8493	-841.11713	-807.56006	485.49557	-864.84241	-956.35986	256.14551	-881.85004	-1039.53699	91.58707	-939.03204	-1083.6615	80.2923	-986.07098	-900.50989	29.68367	-932.8764	-750.63	1676.50061	-1017.06519	NaN	NaN	NaN	NaN	NaN	NaN	NaN	NaN	NaN	NaN	NaN	NaN	NaN	NaN	NaN	NaN	NaN	NaN	NaN	NaN	NaN	NaN	NaN	NaN	NaN	NaN	NaN	NaN	NaN	NaN
24	0.23	-636.83411	1633.60352	-1068.77515	-646.54889	1623.95483	-937.69574	-772.04785	1583.58545	-1078.47192	-779.66638	1579.50085	-949.05194	-782.67334	1427.41016	-1014.08197	-835.26172	1100.35461	-998.1441	-675.6192	1344.36414	-1011.19342	-644.58197	1168.8551	-1008.50775	-862.23328	1265.2627	-922.49915	-731.30048	1374.23999	-1174.35876	-795.6441	1183.677	-1237.19849	-841.91339	1080.76086	-1244.06519	-873.79663	933.84576	-1267.78259	-851.1142	803.99713	-1232.84753	-914.78174	821.86548	-1263.70581	-905.80963	730.93744	-1266.39941	-715.78839	1385.75793	-851.37415	-737.52997	1194.17126	-747.37061	-709.3103	1079.3075	-725.95319	-635.75446	988.72766	-716.3233	-513.33002	914.63562	-767.3631	-550.74561	883.03204	-721.62366	-476.42749	847.1181	-728.74982	-647.862	940.74292	-1094.34753	-672.34857	941.56891	-876.96399	-809.56653	961.75531	-1087.14746	-820.42206	967.54553	-918.81982	-643.56592	632.16449	-1167.89941	-585.39063	483.98868	-1135.98547	-541.45453	230.22266	-1132.22327	-481.52307	67.05773	-1093.16028	-513.78821	43.75741	-1043.53455	-333.18353	74.7252	-1088.72546	-774.17346	610.33344	-841.10681	-796.30286	484.96301	-864.59296	-949.77112	258.52457	-881.0708	-1037.04614	95.95855	-937.69489	-1081.53467	86.11867	-984.55774	-900.3125	29.64968	-932.85876	-740.25098	1675.97375	-1017.90802	NaN	NaN	NaN	NaN	NaN	NaN	NaN	NaN	NaN	NaN	NaN	NaN	NaN	NaN	NaN	NaN	NaN	NaN	NaN	NaN	NaN	NaN	NaN	NaN	NaN	NaN	NaN	NaN	NaN	NaN
25	0.24	-626.36328	1633.31641	-1069.60754	-636.06616	1623.63879	-938.47638	-761.5329	1583.14636	-1079.42981	-769.17706	1579.14185	-949.94147	-772.0235	1426.92285	-1015.12115	-823.69714	1099.72913	-999.52722	-664.84546	1344.07483	-1012.09204	-633.37927	1168.63513	-1009.3739	-851.54633	1264.64893	-923.84271	-720.38287	1373.95581	-1175.31995	-784.18213	1183.16333	-1238.10046	-830.32959	1080.19543	-1245.06592	-862.56842	933.35144	-1268.89148	-839.80432	803.5036	-1233.1731	-903.21667	821.32697	-1264.45654	-894.39581	730.51825	-1267.05408	-705.33337	1385.23669	-852.33429	-728.04279	1193.7002	-748.45837	-700.61902	1078.64807	-726.90149	-627.92529	987.23456	-716.87732	-506.07141	911.73401	-767.27509	-544.11957	880.59937	-721.69269	-469.97092	843.88806	-728.42603	-635.42542	940.33435	-1095.26831	-660.97931	941.39001	-877.68335	-797.19238	961.16455	-1088.47046	-808.75323	966.95801	-920.27716	-631.80212	631.5777	-1168.07666	-574.31732	482.90338	-1135.95178	-534.26178	228.35974	-1132.09509	-478.1702	64.01563	-1092.41748	-511.38687	41.78715	-1043.3075	-330.06573	68.79292	-1087.17676	-762.62964	610.03088	-841.12891	-784.55096	484.49777	-864.00836	-942.76392	261.15277	-880.26855	-1034.18945	100.80917	-936.30957	-1078.81567	92.52245	-983.05542	-900.13538	29.55777	-932.85803	-729.77673	1675.62891	-1018.70117	NaN	NaN	NaN	NaN	NaN	NaN	NaN	NaN	NaN	NaN	NaN	NaN	NaN	NaN	NaN	NaN	NaN	NaN	NaN	NaN	NaN	NaN	NaN	NaN	NaN	NaN	NaN	NaN	NaN	NaN
